/* XPM */
static char *dummy[]={
"32 29 153 2",
"Qt c None",
".G c #0020ff",
".9 c #011ffe",
"#D c #031ffc",
".W c #041ffb",
".P c #091ef6",
"#e c #0a1ef5",
"#q c #0f1ef0",
"#T c #111dee",
".F c #161de9",
"ac c #171de8",
"#x c #251bda",
".Z c #3319cc",
".X c #3a18c5",
"#5 c #4417bb",
".6 c #4617b9",
"#G c #5115ae",
"#M c #5315ac",
"#0 c #5a14a5",
".O c #5d14a2",
".0 c #5f14a0",
".J c #65139a",
"#N c #661399",
".H c #71118c",
".R c #7a1082",
"#V c #7c1081",
"#w c #7f0f7a",
"#c c #820f79",
"#U c #850f7a",
"#L c #8a0106",
".e c #8a2000",
"#J c #8a3000",
"#. c #8b1900",
"aa c #96010a",
"#Z c #970109",
"aw c #983300",
"#f c #993400",
"#R c #993500",
".w c #9d4000",
".S c #9e0404",
"#v c #9e0a54",
"#O c #9e2000",
"#l c #a62600",
"#1 c #a70949",
"#j c #ad0943",
"#9 c #ad2b00",
"an c #af0211",
"#A c #af4200",
"ao c #b00211",
"#E c #b20841",
".5 c #b4020f",
"a. c #b43100",
".V c #ba6700",
"#o c #bc0631",
"#6 c #bc0632",
".# c #bc2300",
"av c #bc3c00",
".Q c #bd0842",
".A c #bd2700",
".s c #bd2d00",
".d c #bd2f00",
"#Y c #be4700",
".x c #bf020e",
".o c #c12500",
".j c #c44600",
".K c #c7080a",
"#t c #c85600",
".7 c #c9020d",
"#p c #c90525",
"ad c #c9062e",
"## c #cc5600",
"#C c #cd020e",
"a# c #cd3c00",
"#3 c #cd4e00",
".r c #ce2200",
"aj c #cf7f00",
"#a c #cf8c00",
"ak c #d4031b",
"au c #d43e00",
".B c #d54400",
".N c #d55600",
".I c #d6041f",
"#I c #d83200",
"at c #d93c00",
".n c #da7100",
"#b c #dd010d",
"as c #de3800",
".t c #df3b00",
"#H c #e02b00",
".E c #e30210",
"#n c #e5020f",
"#2 c #e52a00",
"ap c #e62800",
"#Q c #e64500",
"ar c #e73100",
"#7 c #e82500",
"#s c #e84600",
"am c #e89d00",
"ab c #e9010c",
"#F c #ea010c",
".c c #ea2c00",
".Y c #eb010b",
"al c #eb2900",
".M c #eb4800",
"aq c #ec2d00",
".T c #ec5b00",
"ah c #ed4b00",
"#d c #ee0007",
".8 c #ee0109",
".y c #ee2b00",
".p c #ee5b00",
".k c #ee5e00",
".m c #ef2800",
".b c #ef2a00",
".1 c #ef2e00",
"ag c #f00107",
".a c #f02a00",
"#y c #f06900",
".D c #f0b600",
"#u c #f10107",
"ae c #f17000",
"#k c #f30005",
"#W c #f37200",
"#X c #f38200",
"#i c #f40005",
"#z c #f48400",
".4 c #f6c700",
".U c #f88b00",
"#m c #f8bb00",
".i c #fab900",
"#h c #fbd300",
".f c #fd9900",
".q c #fd9b00",
".L c #fda300",
"#r c #ffaf00",
"#P c #ffb500",
".2 c #ffc700",
"#8 c #ffc800",
".z c #ffcb00",
".C c #ffdb00",
".v c #ffe400",
"#K c #ffe600",
"af c #ffe700",
"#g c #ffe800",
".l c #ffeb00",
"#S c #ffec00",
"#4 c #ffed00",
".3 c #fff000",
".u c #fff200",
"#B c #fff800",
".h c #fffb00",
"ai c #fffc00",
".g c #ffff00",
"QtQtQtQtQtQtQtQtQtQtQtQtQtQtQtQtQtQtQtQtQtQtQtQtQtQtQtQtQtQtQtQt",
"QtQtQtQtQtQtQtQtQtQtQtQtQtQtQtQtQtQtQtQtQtQtQtQtQtQtQtQtQtQtQtQt",
"QtQtQtQtQtQtQtQtQtQtQtQtQtQtQtQtQtQtQtQtQtQtQtQtQtQtQtQtQtQtQtQt",
"QtQtQtQtQtQtQtQt.#.a.a.a.b.b.c.d.eQtQtQtQtQtQtQtQtQtQtQtQtQtQtQt",
"QtQtQtQtQtQtQtQt.f.g.g.g.g.g.g.g.g.h.i.jQtQtQtQtQtQtQtQtQtQtQtQt",
"QtQtQtQtQtQtQtQt.k.g.g.g.g.g.g.g.g.g.g.lQtQtQtQtQtQtQtQtQtQtQtQt",
"QtQtQtQtQtQtQtQt.m.g.g.g.g.g.g.g.g.g.g.g.nQtQtQtQtQtQtQtQtQtQtQt",
"QtQtQtQtQtQtQtQtQt.o.p.g.g.q.r.s.t.u.g.g.g.v.wQtQtQtQtQtQtQtQtQt",
"QtQtQtQtQtQt.xQtQtQt.y.g.g.z.AQtQt.B.C.g.g.g.DQtQtQtQtQtQtQtQtQt",
"QtQtQtQt.E.F.G.H.I.J.K.L.g.g.MQtQtQtQt.N.g.g.gQtQtQtQtQtQtQtQtQt",
"QtQtQtQt.O.G.P.F.Q.R.S.T.g.g.UQtQtQtQtQt.g.g.g.VQtQtQtQtQtQtQtQt",
"QtQtQtQt.W.X.Y.Z.0.EQt.1.g.g.2QtQtQtQtQt.3.g.g.4QtQtQtQtQtQtQtQt",
"QtQtQt.5.6.7Qt.8.9QtQt#..g.g.gQtQtQtQtQt##.g.g.g#aQtQtQtQtQtQtQt",
"QtQtQt#b#cQtQt#d#eQtQtQt.g.g.gQtQtQtQtQt#f#g.g.g#hQtQtQtQtQtQtQt",
"QtQtQt#i#jQtQt#k#eQtQtQt.g.g.g#lQtQtQtQtQt#m.g.g.3QtQtQtQtQtQtQt",
"QtQtQt#n#oQtQt#p#qQtQtQt#r.g.g#sQtQtQtQtQt#t.g.g.gQtQtQtQtQtQtQt",
"QtQtQt#u#vQtQt#w#xQtQtQt#y.g.g#zQtQtQtQtQt#A#B.g.gQtQtQtQtQtQtQt",
"QtQtQt#C#D#E#F.G#GQtQtQt#H.l.g.u#IQtQtQtQt#J#K.g.gQtQtQtQtQtQtQt",
"QtQtQt#L.G.G.G#M#NQtQtQt#O#P.g.g#QQtQtQtQt#R#S.g.gQtQtQtQtQtQtQt",
"QtQtQtQt#T.G.G#U#VQtQtQtQt#W.g.g#XQtQtQtQt#Y.h.g.gQtQtQtQtQtQtQt",
"QtQtQtQtQt#ZQt#0#1QtQtQtQt#2.3.g.3QtQtQt#3#4.g.g.gQtQtQtQtQtQtQt",
"QtQtQtQtQtQtQt#5#6QtQtQtQt#7#8.g.g#9a.a##S.g.g.g.gQtQtQtQtQtQtQt",
"QtQtQtQtQtaaabacadQtQtQtae.g.g.g.g.g.g.g.g.g.g.gafQtQtQtQtQtQtQt",
"QtQtQtQtQtag#e.G.GQtQtQtah.g.g.g.g.g.g.g.g.g.gaiajQtQtQtQtQtQtQt",
"QtQtQtQtQtak.G.G.GQtQtQtal.3.g.g.g.g.g.g.g.g.gamQtQtQtQtQtQtQtQt",
"QtQtQtQtQtQtanaoanQtQtQtQtQtapaqarasatauavawQtQtQtQtQtQtQtQtQtQt",
"QtQtQtQtQtQtQtQtQtQtQtQtQtQtQtQtQtQtQtQtQtQtQtQtQtQtQtQtQtQtQtQt",
"QtQtQtQtQtQtQtQtQtQtQtQtQtQtQtQtQtQtQtQtQtQtQtQtQtQtQtQtQtQtQtQt",
"QtQtQtQtQtQtQtQtQtQtQtQtQtQtQtQtQtQtQtQtQtQtQtQtQtQtQtQtQtQtQtQt"};
